<svg width="16" height="16" viewBox="0 0 16 16" fill="none" xmlns="http://www.w3.org/2000/svg">
<path d="M7.5122 1.19569C7.14634 1.56956 3 5.99129 3 9.93131C3 13.0589 4.9187 15.0001 8 15.0001C11.0813 15.0001 13 13.0589 13 9.96726C13 6.02724 8.85366 1.60551 8.4878 1.23164C8.43441 1.16045 8.36192 1.10205 8.27681 1.06166C8.19169 1.02126 8.0966 1.00012 8 1.00012C7.9034 1.00012 7.80831 1.02126 7.72319 1.06166C7.63808 1.10205 7.56559 1.16045 7.5122 1.23164V1.19569ZM8 13.9217C5.63415 13.9217 4.21951 12.4262 4.21951 9.93131C4.21951 7.05538 6.90244 3.64741 8 2.38201C9.09756 3.64022 11.7805 7.01943 11.7805 9.93131C11.7805 12.4262 10.3659 13.9217 8 13.9217Z" fill="white"/>
</svg>
