<svg width="16" height="16" viewBox="0 0 16 16" fill="none" xmlns="http://www.w3.org/2000/svg">
<g clip-path="url(#clip0_393_34527)">
<path d="M12.2599 5.90004C12.3408 6.08615 12.3817 6.28715 12.3799 6.49004C12.3792 6.74433 12.3142 6.99432 12.1911 7.2168C12.068 7.43929 11.8906 7.62708 11.6755 7.76274C11.4605 7.89841 11.2146 7.97756 10.9608 7.99285C10.7069 8.00815 10.4534 7.95909 10.2235 7.85023C9.99373 7.74137 9.79513 7.57624 9.64616 7.37014C9.4972 7.16405 9.40269 6.92368 9.37142 6.67132C9.34014 6.41896 9.3731 6.16278 9.46724 5.92656C9.56138 5.69034 9.71366 5.48171 9.90994 5.32004C10.3888 4.92743 10.7345 4.39624 10.8995 3.79936C11.0645 3.20248 11.0408 2.56916 10.8315 1.98632C10.6222 1.40348 10.2378 0.899673 9.73078 0.544044C9.22381 0.188415 8.61921 -0.00161108 7.99994 4.32079e-05C7.52099 -0.00498406 7.0478 0.104742 6.61994 0.320043C6.98192 0.206467 7.3734 0.233312 7.71649 0.395238C8.05958 0.557164 8.32914 0.842305 8.47156 1.19394C8.61398 1.54558 8.61881 1.93794 8.4851 2.29298C8.35139 2.64801 8.08894 2.93971 7.74994 3.11004L5.29994 4.44004H5.20994L4.83994 4.64004C4.56985 4.7756 4.3287 4.9624 4.12994 5.19004C3.94665 5.41848 3.82473 5.68994 3.77573 5.97869C3.72673 6.26744 3.75227 6.56393 3.84994 6.84004C4.07994 7.48004 4.71994 8.84004 4.84994 9.28004C4.89783 9.46113 4.88227 9.65316 4.80586 9.82417C4.72944 9.99519 4.59678 10.1349 4.42994 10.22C4.27722 10.2994 4.10276 10.3267 3.93308 10.2979C3.76341 10.269 3.60781 10.1855 3.48994 10.06C2.85556 9.45755 2.4552 8.64974 2.35994 7.78004C2.1171 8.47065 1.99531 9.198 1.99994 9.93004C1.98104 11.5078 2.58438 13.0294 3.6793 14.1655C4.77422 15.3016 6.2726 15.9607 7.84994 16C8.00645 16.01 8.16343 16.01 8.31994 16C7.55994 16 6.69994 15.23 6.25994 14.08C5.74994 12.73 6.00994 11.38 6.84994 11.08C7.68994 10.78 8.76994 11.6 9.27994 12.94C9.78994 14.28 9.52994 15.64 8.69994 15.94C8.61683 15.9731 8.52916 15.9934 8.43994 16C9.91562 15.8244 11.2736 15.1074 12.2509 13.9878C13.2282 12.8683 13.7552 11.4259 13.7299 9.94004C13.7366 8.46131 13.2153 7.02874 12.2599 5.90004Z" fill="white"/>
</g>
<defs>
<clipPath id="clip0_393_34527">
<rect width="16" height="16" fill="white"/>
</clipPath>
</defs>
</svg>
