<svg width="16" height="16" viewBox="0 0 16 16" fill="none" xmlns="http://www.w3.org/2000/svg">
<path d="M13.1006 1.50977C13.3286 1.55629 13.5 1.75829 13.5 2V4C13.5 4.27614 13.2761 4.5 13 4.5C12.7239 4.5 12.5 4.27614 12.5 4V2.75C12.5 2.61193 12.3881 2.5 12.25 2.5H8.75C8.61193 2.5 8.5 2.61193 8.5 2.75V13.25C8.5 13.3881 8.61193 13.5 8.75 13.5H10C10.2761 13.5 10.5 13.7239 10.5 14C10.5 14.2761 10.2761 14.5 10 14.5H6C5.72386 14.5 5.5 14.2761 5.5 14C5.5 13.7239 5.72386 13.5 6 13.5H7.25C7.38807 13.5 7.5 13.3881 7.5 13.25V2.75C7.5 2.61193 7.38807 2.5 7.25 2.5H3.75C3.61193 2.5 3.5 2.61193 3.5 2.75V4C3.5 4.27614 3.27614 4.5 3 4.5C2.72386 4.5 2.5 4.27614 2.5 4V2C2.5 1.72386 2.72386 1.5 3 1.5H13C13.0344 1.5 13.0681 1.50314 13.1006 1.50977Z" fill="white"/>
</svg>
