<svg width="16" height="16" viewBox="0 0 16 16" fill="none" xmlns="http://www.w3.org/2000/svg">
<path d="M5.5 0C6.95869 0 8.35722 0.579878 9.38867 1.61133C10.4201 2.64278 11 4.04131 11 5.5C11 6.65595 10.6424 7.72792 10.0332 8.61328L15.3604 13.9404C15.5556 14.1357 15.5556 14.4522 15.3604 14.6475L14.6533 15.3545C14.4581 15.5497 14.1415 15.5497 13.9463 15.3545L8.62012 10.0283C7.73343 10.6404 6.65896 11 5.5 11C2.46243 11 0 8.53757 0 5.5C6.44277e-08 2.46243 2.46243 6.44256e-08 5.5 0ZM5.5 1.375C3.22183 1.375 1.375 3.22183 1.375 5.5C1.375 7.77817 3.22183 9.625 5.5 9.625C6.30322 9.62322 7.05179 9.39113 7.68555 8.99316C7.64318 8.82767 7.68492 8.64519 7.81445 8.51562L8.52148 7.80859C8.65072 7.67936 8.83287 7.63688 8.99805 7.67871C9.39328 7.04647 9.62323 6.30022 9.625 5.5C9.625 3.22183 7.77817 1.375 5.5 1.375Z" fill="white"/>
<circle cx="5.5" cy="5.5" r="4.5" fill="white"/>
</svg>

