<svg width="16" height="16" viewBox="0 0 16 16" fill="none" xmlns="http://www.w3.org/2000/svg">
<path d="M1.31694 13.7805C1.24801 13.8519 1.3007 14 1.40001 14H4.03418C4.43592 14 4.82864 13.8827 5.16268 13.6629C5.49672 13.4432 5.75707 13.1308 5.91081 12.7654C6.06455 12.3999 6.10478 11.9978 6.0264 11.6098C5.94802 11.2219 5.75456 10.8655 5.47049 10.5858C5.18641 10.3061 4.82448 10.1156 4.43046 10.0384C4.03643 9.96126 3.62802 10.0009 3.25685 10.1522C2.88569 10.3036 2.56845 10.56 2.34526 10.8889C2.12206 11.2178 2.00293 11.6044 2.00293 12C2.00293 12.9138 1.59464 13.4925 1.31694 13.7805Z" fill="white"/>
<path d="M14.2729 1.00711C14.5024 0.834968 14.8236 0.857793 15.0265 1.06066C15.2293 1.26353 15.2522 1.5847 15.08 1.81421L12.1887 5.66931C11.4914 6.5991 10.6654 7.42505 9.73563 8.12239L5.88054 11.0137C5.65102 11.1858 5.32985 11.163 5.12699 10.9602C4.92412 10.7573 4.90129 10.4361 5.07343 10.2066L7.96475 6.35151C8.66209 5.42172 9.48805 4.59577 10.4178 3.89843L14.2729 1.00711Z" fill="white"/>
<path d="M1.06543 14H15.0654V15H1.06543V14Z" fill="white"/>
</svg>
