<svg width="16" height="22" viewBox="0 0 16 22" fill="none" xmlns="http://www.w3.org/2000/svg">
<g clip-path="url(#clip0_394_69718)">
<path d="M13.9863 4.21289C13.5436 4.30404 13.1986 4.40495 12.9512 4.51562C12.7103 4.6263 12.5898 4.72721 12.5898 4.81836V10.8828C12.5898 11.7357 12.4792 12.4974 12.2578 13.168C12.043 13.8385 11.7337 14.4049 11.3301 14.8672C10.9264 15.3294 10.4382 15.6842 9.86523 15.9316C9.29883 16.1725 8.66406 16.293 7.96094 16.293C7.29036 16.293 6.66862 16.1986 6.0957 16.0098C5.52279 15.8275 5.02474 15.5475 4.60156 15.1699C4.1849 14.7858 3.85612 14.304 3.61523 13.7246C3.38086 13.1452 3.26367 12.4583 3.26367 11.6641V4.81836C3.26367 4.74023 3.14974 4.64258 2.92188 4.52539C2.69401 4.4082 2.3457 4.30404 1.87695 4.21289V3.69531H6.51562V4.21289C6.07292 4.30404 5.72786 4.40495 5.48047 4.51562C5.23958 4.6263 5.11914 4.72721 5.11914 4.81836V11.127C5.11914 12.377 5.38932 13.347 5.92969 14.0371C6.47656 14.7272 7.30664 15.0723 8.41992 15.0723C8.88216 15.0723 9.28581 14.9648 9.63086 14.75C9.97591 14.5286 10.2624 14.2389 10.4902 13.8809C10.7181 13.5228 10.8874 13.1126 10.998 12.6504C11.1152 12.1882 11.1738 11.7161 11.1738 11.2344V4.81836C11.1738 4.74023 11.0599 4.64258 10.832 4.52539C10.6042 4.4082 10.2559 4.30404 9.78711 4.21289V3.69531H13.9863V4.21289Z" fill="white"/>
<path d="M1.4082 18.9297H14.582V19.9062H1.4082V18.9297Z" fill="white"/>
</g>
<defs>
<clipPath id="clip0_394_69718">
<rect width="16" height="22" fill="white"/>
</clipPath>
</defs>
</svg>
