<svg width="16" height="16" viewBox="0 0 16 16" fill="none" xmlns="http://www.w3.org/2000/svg">
<g clip-path="url(#clip0_393_34478)">
<path d="M7.91347 6.52338L2.54534 11.8915L2.55499 13.4456L4.10909 13.4553L9.47722 8.08713L7.91347 6.52338ZM10.0332 8.78213L4.61697 14.1984C4.52499 14.2904 4.4 14.3417 4.26992 14.3409L2.15635 14.3277C1.89001 14.3261 1.67451 14.1106 1.67285 13.8442L1.65973 11.7307C1.65892 11.6006 1.71024 11.4756 1.80222 11.3836L7.21847 5.96738L6.84317 5.59208C6.27317 5.02208 6.27317 4.09793 6.84317 3.52793L6.86402 3.50708C7.43402 2.93708 8.35817 2.93708 8.92817 3.50708L9.30347 3.88238L11.3711 1.81475C12.1484 1.03748 13.4086 1.03748 14.1858 1.81475C14.9631 2.59202 14.9631 3.85223 14.1858 4.6295L12.1182 6.69713L12.4935 7.07243C13.0635 7.64243 13.0635 8.56658 12.4935 9.13658L12.4727 9.15743C11.9027 9.72743 10.9785 9.72743 10.4085 9.15743L10.0332 8.78213Z" fill="white"/>
</g>
<defs>
<clipPath id="clip0_393_34478">
<rect width="16" height="16" fill="white"/>
</clipPath>
</defs>
</svg>
