<svg width="16" height="16" viewBox="0 0 16 16" fill="none" xmlns="http://www.w3.org/2000/svg">
<g clip-path="url(#clip0_394_69714)">
<path d="M11.1445 2.21289C10.7344 2.30404 10.4089 2.40495 10.168 2.51562C9.92708 2.6263 9.80013 2.72721 9.78711 2.81836L8.39062 12.8867C8.3776 12.9648 8.46875 13.0625 8.66406 13.1797C8.85938 13.2904 9.16862 13.3913 9.5918 13.4824L9.52344 14H5.27539L5.35352 13.4824C5.76367 13.3913 6.08594 13.2936 6.32031 13.1895C6.5612 13.0788 6.69141 12.9779 6.71094 12.8867L8.07812 2.81836C8.09115 2.74023 8 2.64258 7.80469 2.52539C7.60938 2.4082 7.30664 2.30404 6.89648 2.21289L6.97461 1.69531H11.2129L11.1445 2.21289Z" fill="white"/>
</g>
<defs>
<clipPath id="clip0_394_69714">
<rect width="16" height="16" fill="white"/>
</clipPath>
</defs>
</svg>
