<svg width="16" height="16" viewBox="0 0 16 16" fill="none" xmlns="http://www.w3.org/2000/svg">
<g clip-path="url(#clip0_394_69710)">
<path d="M6.53516 2.51562C6.48958 2.51562 6.44401 2.51888 6.39844 2.52539C6.35938 2.52539 6.3138 2.52539 6.26172 2.52539V6.72461H6.39844C7.01693 6.72461 7.51823 6.66276 7.90234 6.53906C8.28646 6.41536 8.58268 6.2526 8.79102 6.05078C9.00586 5.84245 9.14909 5.60482 9.2207 5.33789C9.29883 5.07096 9.33789 4.79753 9.33789 4.51758C9.33789 4.19206 9.29232 3.9056 9.20117 3.6582C9.11003 3.41081 8.95378 3.20247 8.73242 3.0332C8.51758 2.86393 8.23112 2.73698 7.87305 2.65234C7.51497 2.5612 7.06901 2.51562 6.53516 2.51562ZM7.48242 7.79883C7.18945 7.79883 6.95182 7.81185 6.76953 7.83789C6.59375 7.86393 6.42448 7.89323 6.26172 7.92578V12.6914C6.26172 12.7305 6.27148 12.7728 6.29102 12.8184C6.47331 12.8965 6.66211 12.9518 6.85742 12.9844C7.05273 13.0104 7.28385 13.0234 7.55078 13.0234C8.48828 13.0234 9.1849 12.8151 9.64062 12.3984C10.1029 11.9753 10.334 11.3958 10.334 10.6602C10.334 10.3021 10.2917 9.95378 10.207 9.61523C10.1224 9.27018 9.97266 8.96419 9.75781 8.69727C9.54297 8.42383 9.25 8.20573 8.87891 8.04297C8.51432 7.88021 8.04883 7.79883 7.48242 7.79883ZM13.2051 10.5234C13.2051 11.0768 13.0879 11.5781 12.8535 12.0273C12.6191 12.4701 12.2773 12.8477 11.8281 13.1602C11.3789 13.4727 10.8288 13.7135 10.1777 13.8828C9.52669 14.0521 8.78776 14.1367 7.96094 14.1367C7.81771 14.1367 7.63542 14.1335 7.41406 14.127C7.19922 14.127 6.96159 14.1237 6.70117 14.1172C6.44727 14.1107 6.17708 14.1042 5.89062 14.0977C5.61068 14.0911 5.33398 14.0814 5.06055 14.0684C4.41602 14.0488 3.73568 14.026 3.01953 14H2.20898V13.1895C2.65169 13.0983 2.98047 13.0007 3.19531 12.8965C3.41667 12.7858 3.52734 12.6849 3.52734 12.5938V2.71094C3.27344 2.73698 3.03255 2.76628 2.80469 2.79883C2.58333 2.82487 2.38477 2.85417 2.20898 2.88672L2.07227 1.98828C2.37174 1.91667 2.72982 1.84831 3.14648 1.7832C3.56966 1.71159 4.01237 1.64974 4.47461 1.59766C4.93685 1.53906 5.40234 1.49349 5.87109 1.46094C6.33984 1.42188 6.77604 1.40234 7.17969 1.40234C7.95443 1.40234 8.64779 1.46419 9.25977 1.58789C9.87174 1.70508 10.3893 1.8776 10.8125 2.10547C11.2357 2.33333 11.5579 2.61003 11.7793 2.93555C12.0072 3.26107 12.1211 3.62891 12.1211 4.03906C12.1211 4.74219 11.9258 5.3444 11.5352 5.8457C11.151 6.34701 10.5651 6.71159 9.77734 6.93945C10.2917 7.01758 10.7572 7.16406 11.1738 7.37891C11.597 7.59375 11.9583 7.86068 12.2578 8.17969C12.5573 8.49219 12.7884 8.85026 12.9512 9.25391C13.1204 9.65104 13.2051 10.0742 13.2051 10.5234Z" fill="white"/>
</g>
<defs>
<clipPath id="clip0_394_69710">
<rect width="16" height="16" fill="white"/>
</clipPath>
</defs>
</svg>
